<svg width="0" height="0" class="hidden">
  <symbol xmlns="http://www.w3.org/2000/svg" viewBox="0 0 90 430" id="chevron">
    <title>background</title>
    <path fill="none" d="M-1-1h92v432H-1z"></path>
    <title>Layer 1</title>
    <path d="M-.493 49.092L-1 430.709l44.592-45.606 46.62 46.62V49.645L41.565 1" fill-opacity="null" fill="#18345e"></path>
  </symbol>
  <symbol xmlns="http://www.w3.org/2000/svg" viewBox="0 0 90 300" id="chevron-small">
    <title>background</title>
    <path fill="none" d="M-1-1h92v302H-1z"></path>
    <title>Layer 1</title>
    <path fill="#1074bc" d="M-.493 33.684L-1 293.034l44.592-30.995 46.62 31.683V34.06L41.565 1"></path>
  </symbol>
  <symbol xmlns="http://www.w3.org/2000/svg" viewBox="0 0 20 20" id="chevron-up">
    <title>chevron-up</title>
    <path d="M15.484 12.452c-.436.446-1.043.481-1.576 0L10 8.705l-3.908 3.747c-.533.481-1.141.446-1.574 0-.436-.445-.408-1.197 0-1.615.406-.418 4.695-4.502 4.695-4.502a1.095 1.095 0 011.576 0s4.287 4.084 4.695 4.502.436 1.17 0 1.615z"></path>
  </symbol>
  <symbol xmlns="http://www.w3.org/2000/svg" viewBox="0 0 90 90" id="circle">
    <title>background</title>
    <path fill="none" d="M-1-1h92v92H-1z"></path>
    <title>Layer 1</title>
    <path stroke="null" d="M2.438 43.703h0c0-24.025 19.475-43.5 43.5-43.5h0a43.5 43.5 0 0143.5 43.5h0c0 24.024-19.476 43.5-43.5 43.5h0c-24.025 0-43.5-19.476-43.5-43.5zm21.75 0h0c0 12.012 9.737 21.75 21.75 21.75 12.012 0 21.75-9.738 21.75-21.75 0-12.013-9.738-21.75-21.75-21.75h0c-12.013 0-21.75 9.737-21.75 21.75z" fill-opacity="null" stroke-opacity="null" stroke-width="1.5" fill="#f2f2f2"></path>
  </symbol>
  <symbol xmlns="http://www.w3.org/2000/svg" viewBox="-20 -129 638.671 638" id="cloud">
    <path d="M478.906 132.813c-4.785.003-9.562.292-14.312.863-12.895-41.988-51.63-70.684-95.551-70.774a98.316 98.316 0 00-32.121 5.364c-25.578-55.309-86.195-85.368-145.7-72.25C131.712 9.136 89.356 61.89 89.399 122.824a127.84 127.84 0 003.891 31.223C36.594 162.703-3.914 213.516.301 270.715c4.207 57.203 51.719 101.543 109.07 101.797h369.535c66.192 0 119.848-53.66 119.848-119.852s-53.656-119.848-119.848-119.848zm0 219.722H109.371c-49.238.215-89.473-39.254-90.207-88.488-.73-49.235 38.305-89.879 87.531-91.133a9.98 9.98 0 007.957-4.34 9.964 9.964 0 001.172-8.992C96 102.852 125.488 40.727 181.977 20.215 238.46-.297 300.94 28.44 322.133 84.675a9.98 9.98 0 0013.539 5.595 79.317 79.317 0 0133.371-7.395c38 .07 70.723 26.836 78.312 64.07 1.086 5.414 6.36 8.914 11.766 7.82a101.304 101.304 0 0119.785-1.976c55.16 0 99.875 44.719 99.875 99.871 0 55.16-44.715 99.875-99.875 99.875zm0 0"></path>
  </symbol>
  <symbol xmlns="http://www.w3.org/2000/svg" viewBox="0 0 90 150" id="uparrows">
    <title>background</title>
    <path fill="none" d="M-1-1h92v152H-1z"></path>
    <title>Layer 1</title>
    <g stroke="null" fill-opacity="null" stroke-opacity="null" stroke-width="1.5" fill="#18345e">
      <path d="M71.282 61.718L43.42 33.707 15.56 61.718-.364 45.708 43.42 1.683l43.798 44.025"></path>
      <path d="M72.367 103.02L44.506 75.01l-27.861 28.01L.722 87.01l43.784-44.024L88.303 87.01"></path>
      <path d="M71.281 144.736l-27.86-28.012-27.862 28.012-15.923-16.01L43.42 84.7l43.798 44.025"></path>
    </g>
  </symbol>
</svg>