<?xml version="1.0" standalone="no"?>
<!DOCTYPE svg PUBLIC "-//W3C//DTD SVG 20010904//EN"
 "http://www.w3.org/TR/2001/REC-SVG-20010904/DTD/svg10.dtd">
<svg version="1.0" xmlns="http://www.w3.org/2000/svg"
 width="512.000000pt" height="512.000000pt" viewBox="0 0 512.000000 512.000000"
  preserveAspectRatio="none">
<metadata>
Created by potrace 1.13, written by Peter Selinger 2001-2015
</metadata>
<g transform="translate(0.000000,512.000000) scale(0.100000,-0.100000)"
fill="#000000" stroke="none">
<path d="M2415 4540 c-839 -59 -1566 -663 -1775 -1475 -83 -323 -85 -676 -4
-993 209 -828 937 -1435 1788 -1491 960 -64 1827 565 2061 1495 78 312 78 667
-1 973 -165 639 -635 1156 -1256 1380 -249 90 -541 130 -813 111z m260 -400
c219 -18 404 -69 586 -160 320 -161 558 -399 719 -719 219 -435 219 -967 0
-1403 -161 -319 -399 -557 -718 -718 -368 -184 -800 -215 -1199 -84 -470 153
-854 537 -1007 1007 -154 468 -84 976 190 1382 266 396 710 657 1179 694 55 5
107 9 115 9 8 1 69 -3 135 -8z"/>
<path d="M2468 3443 c-172 -391 -728 -1691 -728 -1701 0 -7 8 -12 18 -12 10 0
193 101 407 225 214 124 392 225 395 225 4 0 126 -69 271 -153 476 -275 515
-297 532 -297 9 0 17 6 17 13 0 6 -180 424 -399 927 -369 849 -399 915 -423
918 -24 3 -30 -6 -90 -145z"/>
</g>
</svg>
